HIERARCHY
ROOT pelvis
{
  OFFSET 0 100 0
  CHANNELS 6 Xposition Yposition Zposition Zrotation Xrotation Yrotation
  JOINT pelvis_right_femur
  {
    OFFSET -10.78128 -3.44521 -0.5502486
    CHANNELS 3 Zrotation Xrotation Yrotation
    JOINT right_femur_tibia
    {
      OFFSET -0.8047443 -44.0398 -0.1307829
      CHANNELS 3 Zrotation Xrotation Yrotation
      JOINT right_tibia_foot
      {
        OFFSET 3.006224 -47.83518 -5
        CHANNELS 3 Zrotation Xrotation Yrotation
        End Site
        {
          OFFSET 0 -5 15
        }
      }
    }
  }
  JOINT pelvis_left_femur
  {
    OFFSET 10.78128 -3.44521 -0.5502486
    CHANNELS 3 Zrotation Xrotation Yrotation
    JOINT left_femur_tibia
    {
      OFFSET 0.8047443 -44.0398 -0.1307829
      CHANNELS 3 Zrotation Xrotation Yrotation
      JOINT left_tibia_foot
      {
        OFFSET -4.370144 -48.10324 -4.275266
        CHANNELS 3 Zrotation Xrotation Yrotation
        End Site
        {
          OFFSET 0 -5 15
        }
      }
    }
  }
  JOINT pelvis_spine1
  {
    OFFSET 0 6.468898 -3.129235
    CHANNELS 3 Zrotation Xrotation Yrotation
    JOINT spine1
    {
      OFFSET 0 23.15396 4.99043
      CHANNELS 3 Zrotation Xrotation Yrotation
      JOINT spine2
      {
        OFFSET 0 20.79997 -5.064912
        CHANNELS 3 Zrotation Xrotation Yrotation
        JOINT neck
        {
          OFFSET 0 14.38658 9.616178
          CHANNELS 3 Zrotation Xrotation Yrotation
          End Site
          {
            OFFSET 0 20 0
          }
        }
      }
      JOINT right_manubrium
      {
        OFFSET -5.722621 16.35077 3.967754
        CHANNELS 3 Zrotation Xrotation Yrotation
        JOINT right_clavicle
        {
          OFFSET -13.16364 1.694482 -4.693211
          CHANNELS 3 Zrotation Xrotation Yrotation
          JOINT right_humerus
          {
            OFFSET -28.5034 -0.3100689 -2.792744
            CHANNELS 3 Zrotation Xrotation Yrotation
            JOINT right_radius
            {
              OFFSET -25.15693 0.02248979 -1.271978
              CHANNELS 3 Zrotation Xrotation Yrotation
              End Site
              {
                OFFSET -15 0 0
              }
            }
          }
        }
      }
      JOINT left_manubrium
      {
        OFFSET 5.722621 16.35077 3.967754
        CHANNELS 3 Zrotation Xrotation Yrotation
        JOINT left_clavicle
        {
          OFFSET 13.16364 1.694482 -4.693211
          CHANNELS 3 Zrotation Xrotation Yrotation
          JOINT left_humerus
          {
            OFFSET 29.39168 -1.063119 -2.237045
            CHANNELS 3 Zrotation Xrotation Yrotation
            JOINT left_radius
            {
              OFFSET 24.59957 -0.9528479 0.9047498
              CHANNELS 3 Zrotation Xrotation Yrotation
              End Site
              {
                OFFSET 15 -0 -0
              }
            }
          }
        }
      }
    }
  }
}
MOTION
Frames: 19
Frame Time: 0.0416666666667
0 103.5113 0 1.91116 -1.43545 0.05032271 2.216503 -12.46492 6.849434 -0 35.93661 -0 -5.843174 -17.63127 -3.443956 -7.312056 12.89849 -25.85787 -0 4.735127 -0 -0.6901188 -19.86596 23.2842 -4.25019 -3.260591 3.6274 1.91605 7.682719 -7.617581 -0.008305717 23.45139 8.915504 4.925396 -22.4485 8.289211 7.887877 -18.59072 11.5909 86.19456 39.69496 -22.04702 -0 0 14.91327 -7.915422 8.877944 4.684483 4.493608 -18.94043 -3.668405 -100.0959 41.29297 27.9761 0 0 -21.52419 -11.10437 17.22601 26.2603
0.2283505 103.6197 1.277622 1.796298 -1.806698 0.2158085 2.004325 -13.57439 6.270688 -0 37.63893 -0 -5.04958 -15.1445 -3.531418 -7.197629 12.47073 -24.26916 -0 4.886431 -0 -1.030489 -19.77456 22.16806 -4.140081 -2.861544 3.509178 1.753788 8.068532 -7.681062 -0.008558141 23.20323 9.047602 4.827051 -22.03718 8.357541 7.673018 -18.43232 11.62965 86.38949 39.1152 -21.84211 -0 0 14.80297 -9.984718 10.05865 5.637591 4.481706 -19.24442 -3.912914 -97.92923 39.92223 26.07031 0 0 -22.04392 -10.22883 16.39785 25.35329
0.4968682 103.3643 4.343216 0.0545263 -2.330426 0.6417442 3.189346 -22.904 5.239555 -0 36.67286 -0 -4.646984 -5.513078 -5.097934 -5.497335 12.70611 -16.67242 -0 6.979763 -0 -0.707255 -21.3752 17.97356 -2.912063 -1.306643 2.723259 2.300961 9.482267 -8.837086 0.750135 21.97318 7.504333 3.361691 -22.64661 8.163647 4.968637 -18.46788 11.3464 87.98174 31.96615 -21.61217 -0 0 14.12848 -14.66427 10.76795 8.295078 4.810575 -20.94992 -4.004521 -91.18163 32.34401 19.56107 0 0 -21.86745 -3.959326 13.58011 19.31937
0.7120776 102.9715 7.823851 -0.7403526 -0.6202576 1.045366 4.274816 -27.84824 5.268724 -0 29.81438 -0 -4.725394 -4.933631 -5.151007 -4.970035 13.81951 -16.01553 -0 7.976909 -0 -1.18411 -22.69873 16.86625 -2.449725 -0.8262095 2.570843 2.900179 8.892121 -9.217615 0.9211125 21.34679 7.6509 3.323497 -24.06155 8.71527 4.736653 -18.00062 11.17053 88.05086 32.03262 -22.14861 -0 0 13.34876 -13.93123 11.06196 8.134202 5.3671 -21.27655 -3.252915 -90.56034 31.41465 18.45418 0 0 -22.77569 -2.36661 13.46012 17.85409
0.88326 102.4296 11.49137 -1.140882 1.220251 1.433223 5.32793 -30.9475 5.663162 -0 23.25972 -0 -4.681535 -5.438142 -4.921916 -4.801544 14.50889 -16.55514 -0 9.093751 -0 -1.802214 -23.69873 16.41976 -2.283329 -0.609606 2.695297 3.316103 8.105278 -9.310574 1.015734 20.86125 7.923275 3.535887 -25.25229 9.195064 5.006861 -17.57475 11.03992 87.87509 33.45247 -22.70208 -0 0 12.92436 -12.31658 11.18142 7.490287 5.847256 -21.28283 -2.442257 -90.9587 31.89036 18.53074 0 0 -23.69649 -2.075172 13.5401 17.75093
1.045267 101.6807 15.56715 -1.200291 1.985495 1.851194 5.541347 -32.68498 5.274259 -0 18.48747 -0 -4.412555 -4.347941 -4.885705 -4.796544 14.95142 -15.88747 -0 10.35108 -0 -2.448868 -24.10192 15.60837 -2.219077 -0.3249495 2.741825 3.414697 7.868186 -9.295051 1.074696 20.4862 8.121425 3.634006 -25.53693 9.426685 4.940883 -17.10959 10.98278 88.19371 33.90122 -23.12001 -0 0 12.05507 -12.50117 11.73409 7.661401 6.208351 -21.6086 -2.195161 -89.93871 31.13874 17.17713 0 0 -25.0159 -1.356456 12.89027 17.00346
1.215401 100.7083 20.18195 -0.943712 1.785941 2.336406 4.954573 -33.29699 4.200351 -0 14.95868 -0 -3.93532 -2.528837 -5.119662 -4.887556 15.49134 -14.39126 -0 11.49901 -0 -3.22131 -24.07871 14.50816 -2.234164 -0.07895704 2.709396 3.249248 8.010308 -9.219723 1.129598 20.30233 8.187905 3.606113 -24.93517 9.409515 4.572966 -16.57355 10.93074 88.90379 33.41927 -23.54808 -0 0 10.8984 -14.05612 12.57786 8.331419 6.493193 -22.18676 -2.4619 -87.97047 29.62947 14.7195 0 0 -26.6534 -0.5593916 11.88994 15.9678
1.39928 99.53103 25.41409 -0.4293996 0.9194503 2.918615 3.858336 -32.93053 2.8068 -0 12.13135 -0 -3.234978 -0.7151111 -5.669796 -5.028336 16.22457 -12.46662 -0 12.70211 -0 -4.103499 -23.65022 13.2956 -2.305266 0.04860674 2.64288 2.898152 8.333277 -9.094366 1.218401 20.30926 8.082178 3.456193 -23.62908 9.207284 4.008482 -15.92566 10.83154 89.84016 32.30239 -24.01053 -0 0 9.608739 -16.35744 13.55042 9.188506 6.729124 -22.85939 -3.049543 -85.60049 27.69891 11.61978 0 0 -28.36412 0.188198 10.7713 14.80726
1.59533 98.22302 31.30514 0.2527217 -0.3117166 3.60162 2.657255 -31.6736 1.582069 -0 9.86898 -0 -2.295259 0.539786 -6.544216 -5.166121 17.12139 -10.4803 -0 14.33518 -0 -4.961556 -22.68179 12.21451 -2.390593 -0.009358969 2.585546 2.441417 8.700838 -8.921015 1.367444 20.46067 7.786037 3.193998 -21.85843 8.903366 3.378758 -15.15271 10.67235 90.84596 30.90491 -24.47853 -0 0 8.329528 -18.79804 14.54294 9.967813 6.921168 -23.45165 -3.73653 -83.2622 25.5513 8.310189 0 0 -29.87008 0.932155 9.655448 13.51209
1.794079 96.9414 37.84635 0.918616 -1.635244 4.329151 1.83009 -29.64364 1.048558 -0 8.606998 -0 -1.184055 0.8494518 -7.658427 -5.180876 18.05684 -8.790255 -0 17.03071 -0 -5.654439 -20.88868 11.49937 -2.385259 -0.2936153 2.544281 1.977015 9.047101 -8.723913 1.569869 20.67373 7.327463 2.848308 -19.9574 8.577963 2.843096 -14.29207 10.49254 91.75404 29.58158 -24.89996 -0 0 7.209812 -20.80529 15.48322 10.44606 7.033878 -23.77623 -4.304942 -81.3314 23.38088 5.295962 0 0 -30.85304 1.782199 8.627484 12.02453
1.973721 95.97739 44.92396 1.183391 -2.692299 4.928861 2.003374 -27.11617 1.706064 -0 9.194783 -0 -0.2330759 0.06275237 -8.670731 -4.843798 18.66044 -7.843419 -0 21.90382 -0 -6.190651 -17.9165 11.31191 -2.071846 -0.758665 2.50133 1.676822 9.348428 -8.572859 1.742001 20.79953 6.84485 2.520021 -18.57185 8.29818 2.644485 -13.51885 10.41624 92.31142 28.79037 -25.20454 -0 0 6.449568 -21.65242 16.21503 10.40328 6.951111 -23.62773 -4.515124 -80.31382 21.66778 3.510599 0 0 -30.91162 2.715977 7.815755 10.5402
2.112945 95.74636 52.26465 0.5771399 -3.065976 5.11761 3.681144 -24.39726 3.613992 -0 12.08599 -0 -0.09194772 -1.325998 -8.903036 -3.98315 18.03058 -7.88569 -0 30.35506 -0 -6.827558 -13.63616 11.58263 -1.203415 -1.188047 2.514322 1.765181 9.686918 -8.583384 1.680321 20.63249 6.631191 2.424839 -18.63353 8.053278 3.067494 -13.26415 10.67547 92.24217 29.01551 -25.34108 -0 0 6.244169 -20.79969 16.45519 9.859232 6.437609 -22.98098 -4.257926 -80.77862 21.17837 4.343608 0 0 -29.8371 3.32245 7.313481 9.876437
2.253757 96.56884 59.4757 -0.7946603 -2.534911 4.740188 6.30997 -21.3952 5.77166 -0 15.76745 -0 -1.209258 -2.250589 -7.78156 -2.995761 14.8067 -8.353022 -0 42.31643 -0 -7.653406 -8.74481 11.89976 0.06265393 -1.257564 2.895599 2.293441 10.26621 -8.816877 1.197658 20.08377 6.954772 2.765511 -20.54894 7.749578 4.204636 -14.02628 11.44946 91.51911 30.54408 -25.31915 -0 0 6.663904 -18.93996 16.14852 9.511465 5.28703 -22.27188 -3.812421 -82.90674 22.1753 8.574809 0 0 -28.16528 2.878385 6.932681 11.21131
2.51362 98.29613 66.21779 -1.842431 -1.323454 4.02167 8.014879 -17.82331 6.624009 -0 17.03453 -0 -3.114174 -2.694979 -5.629323 -2.707887 8.526163 -8.470143 -0 54.14581 -0 -8.092045 -4.925274 11.67978 0.8818162 -0.8290748 3.981546 2.875165 10.95848 -9.008559 0.5053735 19.49262 7.63834 3.405767 -23.18109 7.445562 5.685931 -15.51895 12.45938 90.38973 33.37955 -24.94609 -0 0 7.639655 -17.73678 15.91481 10.10076 3.831548 -21.95254 -3.515375 -85.86811 23.69472 14.55741 0 0 -26.79931 1.54746 6.560139 14.10442
2.907561 100.2936 72.35916 -1.774657 -0.2334149 3.298137 7.841577 -13.64338 5.837938 -0 15.08553 -0 -5.000246 -4.135449 -3.427013 -3.02402 0.6497318 -8.48132 -0 61.27572 -0 -7.969689 -3.366026 10.97549 0.7154165 -0.07277585 5.41294 2.977779 11.12667 -8.60437 0.08346873 19.52186 8.10063 3.94676 -24.70709 7.262565 6.758287 -16.67003 13.09778 88.7946 36.60599 -23.42471 -0 0 8.992752 -17.4464 15.97034 10.99195 2.948849 -21.73054 -3.191408 -88.39133 24.67506 19.25252 0 0 -25.54031 0.7741553 6.970488 15.87935
3.322522 101.9188 77.9734 -0.965286 -0.1727487 2.698098 6.693949 -8.636594 4.37131 -0 12.00926 -0 -6.28305 -6.817013 -1.849723 -3.067153 -7.190265 -8.323354 -0 62.52853 -0 -7.818157 -3.46455 10.88231 0.010495 0.7357269 6.573517 2.525729 10.73201 -7.530087 0.03683504 20.29523 8.060395 4.18401 -24.47016 7.053791 6.918711 -17.24984 13.24028 86.57714 38.45052 -20.33325 -0 0 10.56335 -17.63417 15.73195 11.4424 2.964406 -21.27546 -2.798321 -90.0147 24.86659 21.54981 0 0 -23.82679 1.038316 8.179336 15.451
3.701939 102.8177 83.23808 -0.0140235 -1.190435 2.233786 5.50681 -2.832617 3.16268 -0 9.214873 -0 -6.381716 -9.659989 -1.005751 -2.326423 -14.49769 -7.326285 -0 58.94116 -0 -7.689368 -4.112872 12.0178 -0.6859893 1.385585 7.403879 1.765163 10.34962 -6.221154 0.201434 21.25712 7.695029 4.129237 -23.02766 6.764538 6.291438 -17.84363 13.17477 84.11851 38.30948 -16.38857 -0 0 12.48817 -18.83043 15.32298 11.89731 3.461729 -20.69392 -2.574941 -90.76635 24.38691 22.22883 0 0 -22.12854 1.532895 9.016371 14.21001
4.08456 102.847 88.39255 0.7128605 -2.661194 1.847556 4.60857 3.236546 2.667649 -0 7.161628 -0 -5.060624 -12.28972 -0.7254544 -0.6901969 -21.07858 -5.233351 -0 51.14751 -0 -7.338528 -4.831901 14.09083 -1.137972 1.750863 8.027659 0.9211361 10.22686 -5.056781 0.4541702 21.88591 7.202056 3.785881 -21.17444 6.517719 5.20882 -18.83181 13.05503 81.7753 36.74543 -12.33986 -0 0 15.05365 -21.29297 15.18691 12.90787 3.985899 -20.01763 -2.525468 -90.76287 23.53383 22.26556 0 0 -21.08388 1.520259 8.819492 13.55992
4.565994 102.058 93.71631 0.9536957 -3.739602 1.409037 4.047548 8.761146 2.97222 -0 6.235112 -0 -2.523766 -14.96936 -0.7433919 1.541836 -26.30106 -2.495532 -0 39.79008 -0 -6.678227 -5.505672 16.38317 -1.25852 1.722194 8.475575 0.2158558 10.20432 -4.301923 0.7125957 21.90744 6.718353 3.154367 -19.68217 6.473007 4.012056 -20.22007 12.8425 79.60824 34.59662 -8.618125 -0 0 18.34678 -24.48119 15.42453 14.59353 4.219596 -19.09608 -2.444951 -90.33582 22.80735 22.48635 0 0 -20.7153 0.6852179 7.681235 14.21683
